HIERARCHY
ROOT RootJoint
{
    OFFSET   0.000000   0.000000   0.000000
    CHANNELS 6 Xposition Yposition Zposition Xrotation Yrotation Zrotation
    JOINT pelvis_lowerback
    {
        OFFSET   0.000000   0.093605   0.000000
        CHANNELS 3 Xrotation Yrotation Zrotation
        JOINT lowerback_torso
        {
            OFFSET   0.000000   0.100000   0.000000
            CHANNELS 3 Xrotation Yrotation Zrotation
            JOINT torso_head
            {
                OFFSET   0.000000   0.282350   0.000000
                CHANNELS 3 Xrotation Yrotation Zrotation
                End Site
                {
                    OFFSET   0.000000   0.192650   0.000000
                }
            }
            JOINT rTorso_Clavicle
            {
                OFFSET  -0.001000   0.157500   0.000000
                CHANNELS 3 Xrotation Yrotation Zrotation
                JOINT rShoulder
                {
                    OFFSET  -0.117647   0.000000   0.000000
                    CHANNELS 3 Xrotation Yrotation Zrotation
                    JOINT rElbow
                    {
                        OFFSET  -0.245000   0.000000   0.000000
                        CHANNELS 3 Xrotation Yrotation Zrotation
                        JOINT rWrist
                        {
                            OFFSET  -0.240000   0.000000   0.000000
                            CHANNELS 3 Xrotation Yrotation Zrotation
                            End Site
                            {
                                OFFSET  -0.116353  -0.002500   0.000000
                            }
                        }
                    }
                }
            }
            JOINT lTorso_Clavicle
            {
                OFFSET   0.001000   0.157500   0.000000
                CHANNELS 3 Xrotation Yrotation Zrotation
                JOINT lShoulder
                {
                    OFFSET   0.117647   0.000000   0.000000
                    CHANNELS 3 Xrotation Yrotation Zrotation
                    JOINT lElbow
                    {
                        OFFSET   0.245000   0.000000   0.000000
                        CHANNELS 3 Xrotation Yrotation Zrotation
                        JOINT lWrist
                        {
                            OFFSET   0.240000   0.000000   0.000000
                            CHANNELS 3 Xrotation Yrotation Zrotation
                            End Site
                            {
                                OFFSET   0.116353  -0.002500   0.000000
                            }
                        }
                    }
                }
            }
        }
    }
    JOINT rHip
    {
        OFFSET  -0.100000  -0.051395   0.000000
        CHANNELS 3 Xrotation Yrotation Zrotation
        JOINT rKnee
        {
            OFFSET   0.000000  -0.410000   0.000000
            CHANNELS 3 Xrotation Yrotation Zrotation
            JOINT rAnkle
            {
                OFFSET   0.000000  -0.390000   0.000000
                CHANNELS 3 Xrotation Yrotation Zrotation
                JOINT rToeJoint
                {
                    OFFSET   0.000000  -0.050000   0.130000
                    CHANNELS 3 Xrotation Yrotation Zrotation
                    End Site
                    {
                        OFFSET  -0.010000   0.002000   0.060000
                    }
                }
            }
        }
    }
    JOINT lHip
    {
        OFFSET   0.100000  -0.051395   0.000000
        CHANNELS 3 Xrotation Yrotation Zrotation
        JOINT lKnee
        {
            OFFSET   0.000000  -0.410000   0.000000
            CHANNELS 3 Xrotation Yrotation Zrotation
            JOINT lAnkle
            {
                OFFSET   0.000000  -0.390000   0.000000
                CHANNELS 3 Xrotation Yrotation Zrotation
                JOINT lToeJoint
                {
                    OFFSET   0.000000  -0.050000   0.130000
                    CHANNELS 3 Xrotation Yrotation Zrotation
                    End Site
                    {
                        OFFSET   0.010000   0.002000   0.060000
                    }
                }
            }
        }
    }
}
MOTION
Frames: 11
Frame Time:   0.008333
 -2.376719   0.925631   3.975860   0.000000   0.000000   0.000000   0.000000   0.000000   0.000000   0.000000   0.000000   0.000000   0.000000   0.000000   0.000000   0.000000   0.000000   0.000000   0.000000   0.000000   0.000000   0.000000   0.000000   0.000000   0.000000   0.000000   0.000000   0.000000   0.000000   0.000000   0.000000   0.000000   0.000000   0.000000   0.000000   0.000000   0.000000   0.000000   0.000000   0.000000   0.000000   0.000000   0.000000   0.000000   0.000000   0.000000   0.000000   0.000000   0.000000   0.000000   0.000000   0.000000   0.000000   0.000000   0.000000   0.000000   0.000000   0.000000   0.000000   0.000000   0.000000   0.000000   0.000000
 -2.376013   0.925879   3.974822   0.019479   0.142510   0.270526  -0.033817  -0.035220  -0.140514   0.344604   0.030832  -0.061687  -0.276005   0.356466   0.041626   0.224986  -0.721319  -0.437467   0.892761  -0.009724   2.447470   0.042864   2.328551  -0.030098   0.183147  -0.809614  -2.213401   0.074817   0.133284  -0.132667   0.610554   0.170144  -2.179049   0.070065  -3.525626   0.033153   0.114061   1.578972   2.617794  -1.082716  -0.245312  -0.365362   1.998154   0.001557  -0.001924   0.165497  -0.479224   0.525545  -0.500619   0.001867   0.002600  -0.537955   0.089339  -0.412755   2.281669   0.002916   0.004496  -2.642228  -0.014063   0.062517  -0.366101  -0.000234  -0.000698
 -2.375170   0.926592   3.973663  -0.066250   0.433752   0.551805  -0.024561  -0.166126  -0.243519   0.772484  -0.043702  -0.153225  -0.500269   0.710236   0.105909   0.444358  -1.376907  -0.306720   1.767008   0.079424   5.334915   0.098187   4.579932  -0.053073   0.419261  -0.969536  -3.838894   0.153424   0.087394  -0.967719   1.172313   0.125368  -4.770602   0.167123  -7.158676   0.061380   0.258443   2.160548   4.527305  -2.241583  -0.451948  -0.701341   4.036506   0.001937  -0.000467   0.109335  -0.893010   0.985298  -3.171592   0.010653   0.010850  -0.767372   0.180532  -0.873813   4.728776   0.006783   0.011267  -5.112230  -0.031305   0.116060  -0.816867  -0.000618  -0.001996
 -2.374273   0.927535   3.972435  -0.144905   0.746437   0.802440  -0.023786  -0.354058  -0.314404   1.183008  -0.191234  -0.254997  -0.708132   1.043065   0.181291   0.649821  -1.928170   0.210277   2.616971   0.259107   8.511733   0.152934   6.701800  -0.068475   0.660837  -0.908311  -4.828751   0.224340  -0.104358  -2.243676   1.680426  -0.061444  -7.556859   0.261779 -10.603884   0.081776   0.412800   2.255381   5.634618  -3.502932  -0.688441  -1.030729   5.961790   0.002450   0.000226   0.063779  -1.342165   1.369485  -3.967238   0.010410   0.011874  -0.752204   0.273644  -1.320043   7.111982   0.010689   0.016656  -7.412695  -0.048671   0.165491  -1.221729  -0.000933  -0.002981
 -2.373405   0.928083   3.971183  -0.210869   1.092870   1.082175  -0.018116  -0.607612  -0.432078   1.564319  -0.407761  -0.384469  -0.908785   1.353118   0.259674   0.842671  -2.403037   0.955244   3.444234   0.512641  11.883853   0.200096   8.692910  -0.077931   0.898427  -0.755693  -5.319507   0.284300  -0.397599  -3.740795   2.138028  -0.345487 -10.388665   0.341629 -13.848904   0.096759   0.567142   2.128302   6.136671  -4.902442  -0.891364  -1.395362   7.676925   0.002742   0.001408   0.212531  -1.748112   1.789733  -4.509342   0.009794   0.011277  -0.528359   0.358723  -1.794139   9.408008   0.014168   0.020979  -9.558481  -0.067192   0.210474  -1.598256  -0.001150  -0.003772
 -2.372577   0.927978   3.969961  -0.265374   1.474180   1.357862  -0.006500  -0.921491  -0.563263   1.919683  -0.687284  -0.519348  -1.100448   1.641662   0.329487   1.027356  -2.830537   1.881254   4.207706   0.811729  15.226619   0.235787  10.555529  -0.082035   1.127123  -0.567785  -5.396342   0.330158  -0.757330  -5.357609   2.547488  -0.696595 -13.190673   0.402871 -16.897320   0.107953   0.717303   1.883990   6.232753  -6.417069  -1.063616  -1.754073   9.207464   0.002783   0.002840   0.396750  -2.120015   2.193623  -4.563311   0.007982   0.009160  -0.124947   0.432982  -2.252449  11.614059   0.017071   0.024501 -11.559962  -0.085989   0.251648  -1.946444  -0.001260  -0.004397
 -2.371779   0.927067   3.968803  -0.306828   1.874319   1.617188   0.008301  -1.283400  -0.693699   2.250886  -1.018479  -0.649383  -1.281636   1.910372   0.392307   1.206294  -3.230095   2.908765   4.905920   1.135363  18.461666   0.259535  12.293831  -0.081954   1.342670  -0.378683  -5.197469   0.360198  -1.156032  -7.021201   2.911343  -1.091009 -15.915352   0.445459 -19.756399   0.116368   0.860770   1.574264   6.063543  -8.018209  -1.211160  -2.095368  10.574264   0.002659   0.004118   0.569730  -2.466427   2.571154  -4.606044   0.006506   0.007410   0.429288   0.494788  -2.680232  13.729537   0.019402   0.027101 -13.426592  -0.104451   0.289806  -2.266039  -0.001288  -0.004830
 -2.371613   0.924779   3.967055  -0.300473   2.022245   1.534426   0.350225  -1.427776  -0.579027   2.345115  -1.332924  -0.680138  -1.632296   1.894735   0.315669   1.522684  -3.416535   3.531066   5.963114   1.280449  21.380556   0.277951  14.257210  -0.093536   1.427457  -0.201742  -4.196932   0.329903  -1.427201  -7.985367   3.083099  -1.732037 -18.754145   0.475479 -22.838942   0.124642   0.919099   1.455927   5.202579  -9.996486  -1.473271  -1.937543  12.333573  -0.000460   0.001060  -0.603580  -2.564362   3.135739  -3.957916   0.000867   0.004535   1.354241   0.816107  -2.636000  14.624692   0.017059   0.025244 -14.753937  -0.302913   0.273675  -2.300456  -0.001035  -0.003959
 -2.371720   0.921292   3.964972  -0.258113   2.218029   1.398985   0.753819  -1.627725  -0.479463   2.452344  -1.687221  -0.690992  -1.967690   1.870848   0.236468   1.807475  -3.558898   3.958324   6.936379   1.476014  23.996999   0.280695  16.101729  -0.100299   1.527222   0.049903  -3.266257   0.263479  -1.764761  -8.694349   3.187518  -2.407091 -21.278276   0.483426 -25.759182   0.133250   0.996622   1.127860   4.446703 -12.060959  -1.750300  -1.671797  13.946019  -0.003863  -0.000106  -1.712007  -2.664005   3.662388  -3.447756  -0.002979   0.002988   2.282794   1.104602  -2.495332  15.323125   0.014601   0.023134 -15.996272  -0.487436   0.255285  -2.305856  -0.000825  -0.003183
 -2.371946   0.916706   3.962761  -0.204425   2.439427   1.268688   1.189250  -1.868897  -0.412656   2.582413  -2.073314  -0.711754  -2.271025   1.848473   0.158013   2.060830  -3.682397   4.247353   7.828624   1.698939  26.357244   0.273250  17.827912  -0.102567   1.623996   0.317063  -2.516330   0.164981  -2.141540  -9.229432   3.234147  -3.083592 -23.539710   0.477239 -28.506516   0.140663   1.089790   0.689102   3.900728 -14.135780  -2.019585  -1.384724  15.397566  -0.006762  -0.000066  -2.748161  -2.765463   4.152234  -2.984545  -0.005799   0.002171   3.211741   1.370924  -2.341102  15.959092   0.012453   0.021225 -17.156745  -0.658358   0.235154  -2.309309  -0.000656  -0.002558
 -2.372225   0.911097   3.960555  -0.145041   2.661823   1.153800   1.634335  -2.137005  -0.371810   2.726044  -2.478301  -0.747285  -2.544685   1.827830   0.080736   2.290984  -3.803141   4.433163   8.650367   1.929614  28.497050   0.259399  19.438553  -0.101097   1.714625   0.569504  -1.923558   0.043735  -2.530438  -9.643655   3.235177  -3.741666 -25.586953   0.462335 -31.084666   0.146127   1.189753   0.193260   3.522935 -16.188786  -2.280361  -1.096779  16.706514  -0.009031   0.000425  -3.716236  -2.867628   4.607803  -2.561142  -0.007778   0.001750   4.144110   1.618992  -2.194092  16.559800   0.010625   0.019470 -18.239665  -0.817044   0.213778  -2.310670  -0.000522  -0.002051
